<?xml version="1.0" standalone="no"?>
<!DOCTYPE svg PUBLIC "-//W3C//DTD SVG 20010904//EN"
 "http://www.w3.org/TR/2001/REC-SVG-20010904/DTD/svg10.dtd">
<svg version="1.0" xmlns="http://www.w3.org/2000/svg"
 width="1000.000000pt" height="1000.000000pt" viewBox="0 0 1000.000000 1000.000000"
 preserveAspectRatio="xMidYMid meet">
<metadata>
Created by potrace 1.11, written by Peter Selinger 2001-2013
</metadata>
<g transform="translate(0.000000,1000.000000) scale(0.100000,-0.100000)"
fill="#000000" stroke="none">
<path d="M4985 9958 c-7 -22 -151 -430 -272 -768 -30 -85 -63 -173 -73 -195
-9 -22 -24 -62 -33 -90 -37 -116 -162 -469 -206 -585 -27 -69 -59 -156 -71
-195 -22 -70 -60 -177 -151 -423 -27 -73 -49 -139 -49 -145 0 -13 -85 -225
-93 -233 -5 -6 -63 21 -313 143 -93 46 -175 83 -182 83 -6 0 -106 47 -222 105
-116 58 -227 112 -248 119 -52 19 -432 200 -517 247 -39 21 -88 45 -110 52
-44 16 -82 34 -560 262 -181 86 -349 166 -372 176 l-42 18 23 -52 c13 -29 97
-205 186 -392 89 -187 185 -389 212 -450 27 -60 94 -200 147 -310 54 -110 120
-247 145 -305 26 -58 97 -205 157 -328 60 -122 109 -227 109 -233 0 -6 38 -88
84 -182 108 -222 147 -309 142 -314 -8 -8 -221 -93 -233 -93 -6 0 -72 -22
-145 -49 -281 -104 -326 -120 -408 -146 -47 -15 -141 -49 -210 -75 -127 -50
-439 -160 -565 -200 -38 -12 -88 -30 -110 -40 -22 -10 -110 -43 -195 -73 -265
-95 -744 -264 -767 -271 -32 -10 -28 -23 9 -35 18 -5 200 -68 403 -141 204
-73 408 -146 455 -162 47 -16 90 -33 95 -38 6 -4 60 -24 120 -43 104 -33 383
-132 650 -230 66 -24 165 -59 220 -77 55 -17 129 -44 165 -60 36 -15 117 -45
180 -66 132 -43 321 -114 333 -124 9 -8 -7 -42 -140 -316 -46 -94 -83 -177
-83 -183 0 -6 -49 -109 -110 -230 -60 -121 -110 -224 -110 -229 0 -13 -200
-434 -255 -536 -24 -45 -46 -92 -50 -106 -4 -14 -74 -164 -155 -335 -243 -510
-251 -528 -276 -582 l-24 -53 53 24 c28 13 210 99 402 191 193 92 395 187 450
212 55 24 190 89 300 142 110 54 247 120 305 145 58 26 205 97 328 157 122 60
227 109 233 109 6 0 88 38 182 84 245 119 310 148 317 139 10 -12 90 -217 90
-230 0 -6 22 -72 49 -145 91 -246 129 -353 151 -423 12 -38 44 -126 71 -195
61 -158 163 -446 201 -570 17 -52 33 -99 38 -105 4 -5 34 -86 68 -180 135
-379 270 -761 277 -782 3 -13 10 -23 15 -23 5 0 12 10 15 23 4 12 54 155 112
317 57 162 129 365 159 450 30 85 63 173 74 195 10 22 28 72 39 110 30 99 167
485 206 580 18 44 45 118 60 165 27 85 65 192 156 438 27 73 49 139 49 145 0
13 80 218 90 230 7 9 72 -20 317 -139 94 -46 176 -84 182 -84 6 0 110 -49 231
-110 120 -60 223 -110 228 -110 12 0 493 -228 508 -241 6 -4 75 -37 155 -73
79 -35 302 -139 494 -231 193 -92 374 -178 402 -191 l53 -24 -24 53 c-13 28
-99 210 -191 402 -92 193 -196 415 -231 494 -36 80 -69 149 -73 155 -13 15
-241 496 -241 508 0 5 -49 108 -110 228 -60 121 -110 225 -110 231 0 6 -38 88
-84 182 -119 245 -148 310 -139 317 12 10 203 81 333 124 63 21 144 51 180 66
36 16 110 43 165 60 55 18 154 53 220 77 267 98 546 197 650 230 61 19 115 39
120 43 6 5 48 22 95 38 47 16 252 89 455 162 204 73 385 136 403 141 37 12 41
25 10 35 -24 7 -503 176 -768 271 -85 30 -173 63 -195 73 -22 9 -62 24 -90 33
-117 37 -470 162 -585 207 -69 26 -163 60 -210 75 -82 26 -127 42 -408 146
-73 27 -139 49 -145 49 -12 0 -225 85 -233 93 -5 5 35 93 142 313 46 94 84
177 84 183 0 6 49 111 109 233 60 123 131 270 157 328 25 58 91 195 145 305
53 110 120 250 147 310 27 61 123 263 212 450 89 187 173 363 186 392 l23 52
-42 -18 c-23 -10 -190 -90 -372 -176 -478 -228 -516 -246 -560 -262 -22 -7
-71 -31 -110 -52 -85 -47 -465 -228 -517 -247 -21 -7 -132 -61 -248 -119 -116
-58 -216 -105 -222 -105 -7 0 -89 -37 -182 -83 -250 -122 -308 -149 -313 -143
-8 8 -93 220 -93 233 0 6 -22 72 -49 145 -91 246 -129 353 -156 438 -15 47
-42 121 -60 165 -39 95 -176 481 -206 580 -11 39 -29 88 -39 110 -11 22 -44
110 -74 195 -30 85 -102 288 -159 450 -58 162 -108 305 -112 318 -3 12 -10 22
-15 22 -5 0 -12 -10 -15 -22z m63 -301 c24 -67 68 -189 97 -272 29 -82 101
-285 160 -450 58 -165 130 -367 160 -450 29 -82 101 -285 160 -450 112 -315
192 -541 253 -712 21 -57 40 -103 44 -103 4 0 148 67 320 149 329 156 401 190
718 341 107 51 332 158 500 238 168 79 350 166 405 192 55 26 192 91 304 144
112 54 205 95 208 93 2 -3 -61 -142 -140 -308 -233 -489 -446 -937 -494 -1039
-25 -52 -90 -189 -145 -305 -55 -115 -120 -250 -143 -300 -23 -49 -86 -181
-139 -293 -53 -112 -96 -206 -96 -210 0 -4 46 -23 103 -44 274 -97 431 -153
642 -228 127 -45 329 -117 450 -160 206 -73 324 -115 903 -321 125 -44 280
-99 344 -122 65 -23 118 -44 118 -47 0 -3 -30 -16 -67 -28 -38 -13 -160 -57
-273 -97 -113 -40 -315 -112 -450 -160 -135 -48 -337 -120 -450 -160 -113 -40
-338 -120 -500 -178 -716 -254 -820 -292 -820 -299 0 -4 45 -103 101 -220 56
-117 118 -249 139 -293 21 -44 86 -181 145 -305 59 -124 128 -268 152 -320
100 -211 334 -703 475 -999 82 -172 147 -315 145 -317 -4 -5 -57 19 -427 196
-118 56 -255 122 -305 145 -49 23 -187 89 -305 145 -118 56 -258 123 -310 147
-52 25 -234 112 -405 193 -508 242 -696 330 -703 330 -4 0 -23 -46 -44 -103
-119 -333 -341 -960 -415 -1167 -30 -85 -63 -177 -73 -205 -10 -27 -57 -158
-104 -290 -226 -641 -281 -795 -286 -795 -3 0 -25 55 -48 123 -24 67 -68 190
-97 272 -29 83 -101 285 -160 450 -59 165 -130 368 -160 450 -29 83 -101 285
-160 450 -112 315 -192 541 -253 712 -21 57 -40 103 -44 103 -9 0 -169 -76
-1313 -620 -176 -84 -360 -172 -410 -195 -49 -23 -187 -89 -305 -145 -370
-176 -423 -201 -427 -196 -2 2 42 100 98 217 56 118 122 257 146 309 57 120
291 613 478 1005 78 165 163 343 188 395 24 52 90 191 146 308 55 117 101 216
101 220 0 8 -4 9 -660 242 -250 89 -547 195 -660 235 -113 40 -315 112 -450
160 -135 48 -337 120 -450 160 -113 40 -235 84 -272 97 -38 12 -68 25 -68 28
0 3 53 24 118 47 64 23 219 78 345 122 578 206 696 248 902 321 121 43 321
114 445 158 124 44 343 122 487 174 145 51 263 96 263 100 0 4 -43 98 -96 210
-53 112 -116 244 -139 293 -23 50 -91 191 -150 315 -59 124 -128 268 -152 320
-100 211 -334 703 -475 999 -82 172 -147 315 -145 318 3 2 96 -39 208 -93 112
-53 249 -118 304 -144 55 -26 237 -113 405 -192 168 -80 393 -187 500 -238
317 -151 389 -185 718 -341 172 -82 316 -149 320 -149 4 0 23 46 44 103 97
274 153 431 228 642 45 127 117 329 160 450 73 206 115 324 321 903 44 125 99
280 122 344 23 65 44 118 47 118 3 0 24 -55 48 -123z"/>
<path d="M4937 7992 c-32 -92 -92 -259 -132 -372 -40 -113 -98 -275 -128 -360
-31 -85 -102 -288 -160 -450 -58 -162 -108 -305 -112 -317 -3 -13 -10 -23 -15
-23 -9 0 -202 91 -950 447 -168 80 -336 160 -375 178 -38 18 -123 58 -188 89
-65 31 -116 52 -114 48 3 -4 66 -135 140 -292 74 -157 204 -431 290 -610 248
-521 337 -711 337 -719 0 -4 -80 -36 -177 -70 -98 -35 -311 -110 -473 -168
-162 -57 -365 -129 -450 -160 -85 -30 -177 -63 -205 -73 -27 -11 -125 -45
-217 -77 -92 -32 -168 -61 -168 -64 0 -4 12 -10 26 -13 24 -6 309 -107 769
-271 202 -72 721 -257 818 -290 42 -15 77 -31 77 -36 0 -8 -125 -272 -443
-939 -82 -173 -164 -346 -182 -385 -18 -38 -58 -123 -89 -188 -31 -65 -52
-116 -48 -114 4 3 142 69 307 147 165 78 440 209 610 290 525 250 696 330 704
330 4 0 35 -78 69 -172 88 -250 262 -741 347 -978 134 -373 185 -520 185 -530
0 -6 5 -10 10 -10 6 0 10 4 10 10 0 9 42 131 165 475 72 201 366 1030 400
1128 15 42 31 77 36 77 8 0 192 -86 709 -333 173 -82 360 -171 415 -197 55
-26 187 -89 294 -139 106 -51 195 -90 198 -88 4 4 -98 221 -365 782 -293 616
-392 827 -392 834 0 5 35 21 78 36 87 30 589 209 817 290 598 213 743 264 768
270 15 4 27 10 27 14 0 3 -76 32 -168 64 -92 32 -189 66 -217 77 -27 10 -120
43 -205 73 -85 31 -288 103 -450 160 -162 58 -375 133 -472 168 -98 34 -178
66 -178 70 0 8 80 179 330 704 81 171 212 445 290 610 78 165 144 303 147 307
2 4 -45 -15 -104 -43 -59 -28 -139 -66 -178 -84 -38 -18 -171 -81 -295 -140
-124 -59 -265 -127 -315 -150 -49 -23 -233 -110 -408 -194 -174 -83 -321 -151
-326 -151 -4 0 -35 78 -69 173 -88 249 -262 740 -347 977 -134 373 -185 520
-185 530 0 37 -23 -12 -73 -158z m350 -2282 c216 -35 369 -86 571 -190 174
-89 287 -175 455 -342 81 -81 147 -152 147 -158 0 -6 -24 7 -52 28 -247 180
-606 310 -1018 369 -94 13 -190 17 -390 17 -286 0 -410 -12 -630 -61 -317 -71
-619 -198 -792 -335 -80 -63 -32 -1 110 140 167 167 280 253 454 342 289 149
527 207 848 209 131 1 206 -4 297 -19z m-429 -382 c5 -26 -39 -34 -55 -12 -12
17 -11 20 9 25 31 9 42 6 46 -13z m67 13 c-16 -15 -48 -17 -52 -3 -3 8 6 12
28 12 20 0 29 -4 24 -9z m58 2 c-7 -2 -21 -2 -30 0 -10 3 -4 5 12 5 17 0 24
-2 18 -5z m70 0 c-7 -2 -21 -2 -30 0 -10 3 -4 5 12 5 17 0 24 -2 18 -5z m74
-5 c-4 -14 -36 -12 -51 3 -6 5 3 9 23 9 22 0 31 -4 28 -12z m69 2 c12 0 12 -4
4 -20 -12 -22 -27 -25 -49 -11 -19 12 -6 45 15 37 9 -3 22 -6 30 -6z m-404
-25 c8 -19 8 -28 -2 -40 -17 -20 -23 -19 -62 12 l-33 27 33 -35 c32 -35 32
-36 13 -53 -16 -15 -23 -16 -43 -5 -23 12 -23 12 -5 -9 15 -17 16 -24 7 -42
-8 -15 -17 -19 -28 -15 -38 15 -45 15 -19 0 18 -11 27 -22 23 -32 -3 -8 -6
-19 -6 -24 0 -5 -10 -10 -22 -10 -17 -1 -19 -2 -5 -6 11 -3 17 -14 17 -34 0
-26 -4 -29 -32 -31 l-33 -1 33 -4 c29 -4 33 -8 30 -31 -2 -22 -9 -28 -38 -33
l-35 -6 37 -2 c28 -1 38 -6 43 -22 4 -11 5 -22 3 -23 -1 -2 -12 -8 -23 -15
-18 -11 -18 -12 6 -7 21 4 28 1 37 -18 9 -21 8 -27 -11 -40 -12 -8 -17 -15
-10 -15 6 -1 15 4 18 9 10 16 23 12 36 -11 9 -18 6 -26 -18 -52 l-28 -30 36
26 c35 27 36 27 53 8 17 -19 17 -21 -9 -58 l-28 -38 33 34 c29 30 34 32 55 21
l24 -13 -20 -38 c-11 -22 -17 -39 -14 -39 2 0 12 15 21 33 9 17 18 33 19 35 1
1 14 -2 28 -7 24 -9 25 -13 15 -41 -5 -17 -8 -33 -5 -36 3 -3 10 10 16 29 10
29 15 33 36 29 21 -4 25 -10 26 -41 l2 -36 6 35 c5 29 10 35 31 35 21 0 26 -6
31 -35 l6 -35 2 36 c1 31 5 37 26 41 21 4 26 0 36 -29 6 -19 13 -32 16 -29 3
3 0 19 -5 36 -10 28 -9 32 15 41 14 5 27 8 28 7 1 -2 10 -18 19 -35 9 -18 19
-33 21 -33 3 0 -3 17 -14 39 l-20 38 24 13 c21 11 26 9 55 -21 l33 -34 -28 38
c-26 37 -26 39 -9 58 17 19 18 19 53 -8 l36 -26 -28 30 c-24 26 -27 34 -18 52
13 23 26 27 36 11 3 -5 12 -10 18 -9 7 0 2 7 -10 15 -19 13 -20 19 -11 40 9
19 16 22 37 18 24 -5 24 -4 6 7 -11 7 -22 13 -23 15 -2 1 -1 12 3 23 5 16 15
21 43 22 l37 2 -35 6 c-29 5 -36 11 -38 34 -3 24 0 27 30 29 l33 1 -32 4 c-29
4 -33 8 -33 33 0 19 6 30 18 33 13 4 11 5 -5 6 -13 0 -23 5 -23 10 0 5 -3 16
-6 24 -4 10 5 21 23 32 26 15 19 15 -19 0 -11 -4 -20 1 -29 16 -11 21 -8 26
22 52 l34 30 -38 -23 c-37 -21 -39 -22 -58 -4 -19 17 -19 18 13 53 l33 35 -33
-27 c-39 -31 -45 -32 -62 -12 -10 12 -10 21 -2 40 13 29 26 30 153 14 l88 -11
31 -59 c48 -91 64 -153 64 -259 0 -153 -52 -278 -159 -385 -107 -107 -232
-159 -385 -159 -153 0 -278 52 -385 159 -107 107 -159 232 -159 385 0 106 16
168 64 259 l32 59 71 10 c131 17 156 15 169 -13z m-367 -42 c-33 -79 -45 -120
-55 -191 -36 -266 104 -528 348 -651 90 -46 172 -64 282 -64 231 0 425 110
546 310 98 164 117 376 49 548 -14 32 -22 61 -20 64 15 14 306 -73 453 -135
170 -72 382 -199 382 -229 0 -22 -242 -248 -338 -315 -319 -225 -683 -340
-1072 -340 -389 0 -753 115 -1072 340 -96 67 -338 293 -338 315 0 15 116 96
210 148 101 55 268 123 398 161 215 64 239 68 227 39z m750 -49 c19 -8 45 -55
45 -83 0 -12 -12 -34 -27 -50 -59 -63 -153 -29 -153 54 0 64 68 104 135 79z"/>
<path d="M4598 5093 c7 -3 16 -2 19 1 4 3 -2 6 -13 5 -11 0 -14 -3 -6 -6z"/>
<path d="M5388 5093 c7 -3 16 -2 19 1 4 3 -2 6 -13 5 -11 0 -14 -3 -6 -6z"/>
</g>
</svg>
