<?xml version="1.0" standalone="no"?>
<!DOCTYPE svg PUBLIC "-//W3C//DTD SVG 20010904//EN"
 "http://www.w3.org/TR/2001/REC-SVG-20010904/DTD/svg10.dtd">
<svg version="1.0" xmlns="http://www.w3.org/2000/svg"
 width="512.000000pt" height="512.000000pt" viewBox="0 0 512.000000 512.000000"
 preserveAspectRatio="xMidYMid meet">
<metadata>
Created by potrace 1.15, written by Peter Selinger 2001-2017
</metadata>
<g transform="translate(0.000000,512.000000) scale(0.100000,-0.100000)"
fill="#000000" stroke="none">
<path d="M2560 4839 c0 -9 -141 -403 -155 -434 -8 -16 -31 -82 -51 -145 -20
-63 -49 -142 -64 -175 -15 -33 -35 -89 -44 -123 -9 -35 -27 -86 -40 -115 -13
-29 -30 -72 -36 -97 -9 -36 -29 -87 -47 -119 -5 -8 -62 17 -338 150 -55 26
-152 71 -215 100 -63 28 -126 60 -139 70 -13 11 -30 19 -38 19 -8 0 -109 45
-225 100 -116 55 -213 98 -215 96 -2 -2 37 -88 87 -191 50 -104 97 -209 106
-234 8 -25 21 -53 29 -61 7 -8 36 -67 65 -130 28 -63 73 -160 99 -215 133
-276 158 -333 150 -338 -32 -18 -83 -38 -119 -47 -25 -6 -68 -23 -97 -36 -29
-13 -80 -31 -115 -40 -34 -9 -90 -29 -123 -44 -33 -15 -112 -44 -175 -64 -63
-20 -129 -43 -145 -51 -17 -8 -120 -46 -229 -84 -110 -39 -201 -72 -203 -74
-2 -2 93 -38 210 -80 118 -42 227 -83 243 -92 16 -8 35 -15 41 -15 19 0 202
-64 264 -93 30 -13 83 -32 117 -41 35 -9 86 -27 115 -40 29 -13 72 -30 97 -36
36 -9 87 -29 119 -47 8 -5 -17 -62 -150 -338 -26 -55 -71 -152 -99 -215 -29
-63 -58 -122 -65 -130 -8 -8 -21 -36 -29 -61 -9 -25 -56 -130 -106 -234 -50
-103 -89 -190 -87 -192 2 -2 89 37 192 87 104 50 209 97 234 106 25 8 53 21
61 29 8 7 67 36 130 65 63 28 160 73 215 99 276 133 333 158 338 150 18 -32
38 -83 47 -119 6 -25 23 -68 36 -97 13 -29 31 -80 40 -115 9 -34 29 -90 44
-123 15 -33 44 -112 64 -175 20 -63 43 -129 51 -145 8 -17 46 -120 84 -229 39
-110 72 -201 74 -203 2 -2 38 93 80 210 42 118 83 227 92 243 8 16 15 35 15
41 0 19 64 202 93 264 13 30 32 83 41 117 9 35 27 86 40 115 13 29 30 72 36
97 9 36 29 87 47 119 5 8 62 -17 338 -150 55 -26 152 -71 215 -99 63 -29 122
-58 130 -65 8 -8 36 -21 61 -29 25 -9 130 -56 234 -106 103 -50 190 -89 192
-87 2 2 -37 89 -87 192 -50 104 -97 209 -106 234 -8 25 -21 53 -29 61 -7 8
-36 67 -65 130 -28 63 -73 160 -99 215 -133 276 -158 333 -150 338 32 18 83
38 119 47 25 6 68 23 97 36 29 13 80 31 115 40 34 9 87 28 117 41 62 29 245
93 264 93 6 0 25 7 41 15 16 9 125 50 243 92 117 42 212 78 210 80 -2 2 -93
35 -203 74 -109 38 -212 76 -229 84 -16 8 -82 31 -145 51 -63 20 -142 49 -175
64 -33 15 -89 35 -123 44 -35 9 -86 27 -115 40 -29 13 -72 30 -97 36 -36 9
-87 29 -119 47 -8 5 17 62 150 338 26 55 71 152 99 215 29 63 58 122 65 130 8
8 21 36 29 61 9 25 56 130 106 234 50 103 89 189 87 191 -2 2 -99 -41 -215
-96 -116 -55 -217 -100 -225 -100 -8 0 -25 -8 -38 -19 -13 -10 -76 -42 -139
-70 -63 -29 -160 -74 -215 -100 -276 -133 -333 -158 -338 -150 -18 32 -38 83
-47 119 -6 25 -23 68 -36 97 -13 29 -31 80 -40 115 -9 34 -29 90 -44 123 -15
33 -44 112 -64 175 -20 63 -43 129 -51 145 -7 17 -46 120 -85 229 -62 177 -80
222 -80 205z m220 -686 c112 -315 208 -573 213 -573 8 0 1082 506 1121 528 5
3 7 1 4 -4 -21 -37 -528 -1112 -528 -1120 0 -6 258 -102 573 -214 314 -111
578 -206 586 -210 9 -5 3 -11 -20 -19 -406 -140 -1139 -407 -1139 -415 0 -5
117 -257 261 -559 144 -301 259 -551 256 -554 -3 -2 -252 113 -554 256 -302
144 -554 261 -559 261 -6 0 -102 -258 -214 -573 -112 -314 -206 -578 -210
-586 -5 -9 -11 -3 -19 20 -140 406 -407 1139 -415 1139 -5 0 -257 -117 -559
-261 -302 -143 -551 -258 -554 -256 -3 3 113 253 256 555 144 302 261 553 261
559 0 7 -741 277 -1139 414 -23 8 -29 14 -20 19 8 4 272 99 587 210 314 112
572 208 572 214 0 8 -505 1080 -528 1120 -3 5 -1 7 4 4 39 -22 1113 -528 1121
-528 7 0 276 740 414 1139 8 23 14 29 19 20 4 -8 98 -272 210 -586z"/>
<path d="M2560 3999 c0 -8 -269 -762 -274 -766 -2 -2 -147 64 -322 148 -176
83 -343 162 -371 175 l-53 24 24 -53 c13 -28 92 -195 175 -371 84 -175 150
-320 148 -322 -2 -2 -174 -65 -382 -139 -335 -119 -403 -145 -383 -145 8 0
760 -269 765 -274 2 -2 -64 -147 -148 -322 -83 -176 -162 -343 -175 -371 l-24
-53 53 24 c28 13 195 92 371 175 175 84 320 150 322 148 2 -2 65 -174 139
-382 119 -333 145 -403 145 -383 0 7 269 761 274 765 2 2 147 -64 322 -148
176 -83 343 -162 371 -175 l53 -24 -24 53 c-13 28 -92 195 -175 371 -84 175
-150 320 -148 322 2 2 174 65 382 139 335 120 402 145 384 145 -8 0 -762 270
-766 274 -2 2 64 147 148 322 83 176 162 343 175 372 l24 52 -33 -14 c-17 -8
-184 -87 -371 -176 -186 -88 -340 -159 -342 -157 -2 2 -65 174 -139 382 -118
332 -145 403 -145 384z m214 -1133 c84 -24 167 -58 233 -97 58 -35 228 -188
218 -197 -3 -3 -13 2 -23 11 -28 26 -171 93 -245 116 -131 40 -236 54 -392 54
-156 0 -261 -14 -392 -54 -72 -22 -217 -90 -244 -115 -8 -8 -20 -14 -24 -14
-16 0 108 121 170 165 96 69 213 119 336 145 67 14 294 5 363 -14z m-306 -186
c-117 -96 -53 -280 97 -280 112 0 183 100 147 208 -8 25 -29 55 -50 73 l-37
31 69 -4 c82 -5 99 -20 116 -102 45 -217 -198 -382 -383 -260 -83 55 -128 163
-107 259 20 90 37 103 130 104 l55 1 -37 -30z m-173 -7 c-51 -133 -7 -280 108
-359 219 -151 512 59 443 316 -8 30 -13 56 -12 58 2 1 42 -9 90 -23 91 -26
224 -88 266 -124 l25 -21 -76 -73 c-110 -104 -213 -161 -370 -204 -89 -25
-319 -25 -408 0 -157 43 -260 100 -370 204 l-76 73 25 21 c41 35 174 97 262
123 101 30 102 30 93 9z"/>
</g>
</svg>
